<?xml version="1.0" encoding="UTF-8"?>
<svg xmlns="http://www.w3.org/2000/svg" width="920" height="520" viewBox="0 0 920 520" role="img" aria-label="Aide · Test studio">
  <defs>
    <filter id="s" x="-2%" y="-2%" width="104%" height="108%">
      <feDropShadow dx="0" dy="8" stdDeviation="12" flood-color="#1c1b1f" flood-opacity="0.08"/>
    </filter>
  </defs>
  <rect width="920" height="520" fill="#f7f6f5"/>
  <rect x="28" y="28" width="864" height="464" rx="14" fill="#ffffff" stroke="#e4e3e7" filter="url(#s)"/>
  <rect x="28" y="28" width="864" height="44" rx="14" fill="#ffffff"/>
  <rect x="28" y="58" width="864" height="14" fill="#ffffff"/>
  <circle cx="52" cy="50" r="5" fill="#ff5f57"/>
  <circle cx="70" cy="50" r="5" fill="#febc2e"/>
  <circle cx="88" cy="50" r="5" fill="#28c840"/>
  <text x="460" y="54" text-anchor="middle" font-family="ui-sans-serif, system-ui, sans-serif" font-size="13" fill="#6b6a70">Aide · Test studio</text>
  <line x1="28" y1="72" x2="892" y2="72" stroke="#e4e3e7"/>
  
  <rect x="48" y="88" width="220" height="360" rx="12" fill="#f7f6f5" stroke="#e4e3e7"/>
  <text x="68" y="120" font-family="ui-sans-serif, system-ui, sans-serif" font-size="13" font-weight="600" fill="#1c1b1f">Agent</text>
  <text x="68" y="144" font-family="ui-sans-serif, system-ui, sans-serif" font-size="12" fill="#e86a2b">Aide Support</text>
  <text x="68" y="180" font-family="ui-sans-serif, system-ui, sans-serif" font-size="12" fill="#6b6a70">Tabs</text>
  <text x="68" y="208" font-family="ui-sans-serif, system-ui, sans-serif" font-size="12" fill="#1c1b1f">Overview</text>
  <text x="68" y="232" font-family="ui-sans-serif, system-ui, sans-serif" font-size="12" font-weight="700" fill="#e86a2b">Test</text>
  <text x="68" y="256" font-family="ui-sans-serif, system-ui, sans-serif" font-size="12" fill="#6b6a70">Knowledge</text>
  <text x="68" y="280" font-family="ui-sans-serif, system-ui, sans-serif" font-size="12" fill="#6b6a70">Customization</text>
  <rect x="288" y="88" width="560" height="360" rx="12" fill="#ffffff" stroke="#e4e3e7"/>
  <text x="312" y="120" font-family="ui-sans-serif, system-ui, sans-serif" font-size="14" font-weight="600" fill="#1c1b1f">Test chat</text>
  <rect x="312" y="140" width="360" height="44" rx="14" fill="#f7f6f5"/>
  <text x="328" y="167" font-family="ui-sans-serif, system-ui, sans-serif" font-size="13" fill="#1c1b1f">How do I connect GitHub?</text>
  <rect x="400" y="204" width="420" height="120" rx="14" fill="#fff7f2" stroke="#f2d2c0"/>
  <text x="420" y="232" font-family="ui-sans-serif, system-ui, sans-serif" font-size="13" fill="#1c1b1f">Open Tools → GitHub MCP → Connect</text>
  <text x="420" y="254" font-family="ui-sans-serif, system-ui, sans-serif" font-size="13" fill="#1c1b1f">with OAuth, then Test connection.</text>
  <text x="420" y="290" font-family="ui-sans-serif, system-ui, sans-serif" font-size="12" font-weight="600" fill="#e86a2b">Learn more: Connect GitHub (MCP)</text>
  <rect x="312" y="380" width="512" height="44" rx="22" fill="#f7f6f5" stroke="#e4e3e7"/>
  <text x="336" y="407" font-family="ui-sans-serif, system-ui, sans-serif" font-size="12" fill="#6b6a70">Ask a question…</text>
  
</svg>